<svg version="1.1" xmlns="http://www.w3.org/2000/svg" xmlns:xlink="http://www.w3.org/1999/xlink" width="48" height="48"><defs><linearGradient x1="0.32326" y1="8.36511" x2="77.44203" y2="73.77616" gradientUnits="userSpaceOnUse" id="color-1"><stop offset="0" stop-color="#000000" stop-opacity="0.79"></stop><stop offset="1" stop-color="#000000" stop-opacity="0"></stop></linearGradient><filter id="dropshadow-base"><feColorMatrix type="matrix" values="0 0 0 0 0  0 0 0 0 0  0 0 0 0 0  0 0 0 .8 0"></feColorMatrix> <feOffset dx="0" dy="1"></feOffset> <feGaussianBlur stdDeviation="1"></feGaussianBlur> <feComposite in="SourceGraphic"></feComposite></filter><filter id="dropshadow-banner" x="-10%" y="-10%" width="120%" height="130%"><feColorMatrix type="matrix" values="0 0 0 0 0  0 0 0 0 0  0 0 0 0 0  0 0 0 .4 0"></feColorMatrix> <feOffset dx="0" dy="1"></feOffset> <feGaussianBlur stdDeviation="0.5"></feGaussianBlur> <feComposite in="SourceGraphic"></feComposite></filter></defs><g fill="none" fill-rule="nonzero" stroke="none" stroke-width="none" stroke-linecap="butt" stroke-linejoin="miter" stroke-miterlimit="10" stroke-dasharray="" stroke-dashoffset="0" font-family="none" font-weight="none" font-size="none" text-anchor="none" style="mix-blend-mode: normal"><path d="M7,43c-1.10457,0 -2,-0.89543 -2,-2v-34c0,-1.10457 0.89543,-2 2,-2h34c1.10457,0 2,0.89543 2,2v34c0,1.10457 -0.89543,2 -2,2z" id="base 1 13" fill="#3fb0ac" stroke="none" stroke-width="1"></path><path d="M14.5066,16.56964l-4.67123,-4.67123l6.95076,-2.31694l5.47373,1.39016l2.75134,-2.60653l4.69176,0.11583l13.29703,13.29703v19.22203c0,1.10457 -0.89543,2 -2,2h-34c-1.10457,0 -2,-0.89543 -2,-2l0,-0.84704c2.56908,-2.20364 6.28655,-4.38838 11.36977,-5.16162l1.05712,-6.17585l-6.49097,-6.49097l3.53331,-5.73437z" fill="url(#color-1)" stroke="none" stroke-width="1"></path><path d="M10.93591,22.32453l3.5333,-5.73437l4.74968,-2.60654l-9.38352,-2.0852l6.95075,-2.31693l5.47372,1.39015l2.75134,-2.60653l4.69176,0.11582l-3.5333,3.88084l6.54529,0.81093l1.96938,3.3016l-8.68844,-2.08523l2.54861,4.34423l-0.81092,2.7803l-4.23631,-4.7289l-2.81842,9.99573l-0.73101,7.92003c7.41718,-0.10444 17.22974,2.70472 29.917,11.49853l-49.54161,-0.41127c0,0 4.4996,-9.0399 16.04649,-10.79637l1.6328,-9.53898l3.44165,-9.0071l-4.0788,1.53503zM31.21233,24.62246c0,-1.7151 1.39037,-3.10547 3.10547,-3.10547c1.7151,0 3.10547,1.39037 3.10547,3.10547c0,1.7151 -1.39037,3.10547 -3.10547,3.10547c-1.7151,0 -3.10547,-1.39037 -3.10547,-3.10547z" id="path880 1 1" fill="none" stroke="#000000" stroke-width="0"></path><path d="M10.93591,22.32453l3.5333,-5.73437l4.74968,-2.60654l-9.38352,-2.0852l6.95075,-2.31693l5.47372,1.39015l2.75134,-2.60653l4.69176,0.11582l-3.5333,3.88084l6.54529,0.81093l1.96938,3.3016l-8.68844,-2.08523l2.54861,4.34423l-0.81092,2.7803l-4.23631,-4.7289l-2.81842,9.99573l-0.73101,7.92003c5.98848,-0.08432 13.53841,1.73062 22.90208,7.06112c-0.29955,0.72682 -1.01497,1.23842 -1.84989,1.23842h-34c-1.10457,0 -2,-0.89543 -2,-2v-0.84708c2.56908,-2.20362 6.28653,-4.38834 11.36971,-5.16157l1.6328,-9.53898l3.44165,-9.0071l-4.0788,1.53503zM31.21233,24.62246c0,-1.7151 1.39037,-3.10547 3.10547,-3.10547c1.7151,0 3.10547,1.39037 3.10547,3.10547c0,1.7151 -1.39037,3.10547 -3.10547,3.10547c-1.7151,0 -3.10547,-1.39037 -3.10547,-3.10547z" id="path880 1 1" fill="#ffffff" stroke="#000000" stroke-width="0"></path><path d="M2,24c0,-12.15026 9.84974,-22 22,-22c12.15026,0 22,9.84974 22,22c0,12.15026 -9.84974,22 -22,22c-12.15026,0 -22,-9.84974 -22,-22z" id="base 1 9 1" fill="none" stroke="none" stroke-width="1"></path><path d="M2,24c0,-12.15026 9.84974,-22 22,-22c12.15026,0 22,9.84974 22,22c0,12.15026 -9.84974,22 -22,22c-12.15026,0 -22,-9.84974 -22,-22z" id="base 1 5 1" fill="none" stroke="none" stroke-width="1"></path><path d="M2,24c0,-12.15026 9.84974,-22 22,-22c12.15026,0 22,9.84974 22,22c0,12.15026 -9.84974,22 -22,22c-12.15026,0 -22,-9.84974 -22,-22z" id="base 1 1 1" fill="none" stroke="none" stroke-width="1"></path><g id="svg8 1 1" fill="#000000" stroke="none" stroke-width="1" font-family="Roboto, sans-serif" font-weight="400" font-size="14" text-anchor="start"><g id="layer1 1 1"></g></g><rect x="2" y="2" width="44" height="22" fill="none" stroke="none" stroke-width="1"></rect><path d="M2,24v-22h44v22z" fill="none" stroke="none" stroke-width="1"></path><path d="M2,24v-22h44v22z" fill="none" stroke="none" stroke-width="1"></path><path d="M2,24v-22h44v22z" fill="none" stroke="none" stroke-width="1"></path><path d="M2,24v-22h44v22z" fill="none" stroke="none" stroke-width="1"></path><g id="svg8 2 1" fill="#000000" stroke="none" stroke-width="1" font-family="Roboto, sans-serif" font-weight="400" font-size="14" text-anchor="start"><g id="layer1 1 1"></g></g><rect x="2" y="2" width="44" height="22" fill="none" stroke="none" stroke-width="1"></rect><path d="M2,24v-22h44v22z" fill="none" stroke="none" stroke-width="1"></path><path d="M2,24v-22h44v22z" fill="none" stroke="none" stroke-width="1"></path><path d="M2,24v-22h44v22z" fill="none" stroke="none" stroke-width="1"></path><path d="M2,24v-22h44v22z" fill="none" stroke="none" stroke-width="1"></path><g id="svg8 3 1" fill="#000000" stroke="none" stroke-width="1" font-family="Roboto, sans-serif" font-weight="400" font-size="14" text-anchor="start"><g id="layer1 1 1"></g></g><rect x="2" y="2" width="44" height="22" fill="none" stroke="none" stroke-width="1"></rect><path d="M2,24v-22h44v22z" fill="none" stroke="none" stroke-width="1"></path><path d="M2,24v-22h44v22z" fill="none" stroke="none" stroke-width="1"></path><path d="M2,24v-22h44v22z" fill="none" stroke="none" stroke-width="1"></path><path d="M2,24v-22h44v22z" fill="none" stroke="none" stroke-width="1"></path></g></svg>