<?xml version="1.0" encoding="utf-8"?>
<!-- Generator: Adobe Illustrator 19.0.0, SVG Export Plug-In . SVG Version: 6.00 Build 0)  -->
<svg version="1.1" id="Layer_1" xmlns="http://www.w3.org/2000/svg" xmlns:xlink="http://www.w3.org/1999/xlink" x="0px" y="0px"
	 viewBox="0 0 400 400" style="enable-background:new 0 0 400 400;" xml:space="preserve">
<style type="text/css">
	.st0{fill:#ED1C2C;stroke:#ED1C2C;stroke-width:17.136;stroke-linecap:round;stroke-linejoin:round;stroke-miterlimit:10;}
	.st1{fill:#FFFFFF;stroke:#ED1C2C;stroke-width:17.136;stroke-miterlimit:10;}
	.st2{fill:#212121;}
</style>
<path id="XMLID_6_" class="st0" d="M382.9,62.8L382.9,62.8l-0.1-0.1c-2.1-2.8-4.6-5.3-7.5-7.3l-39.2-37.9l-32.7,32.7H81.5
	c-16.9,0-30.6,13.7-30.6,30.6v221.5l-34.1,34.1l42.7,42.4c0.3,0.3,0.6,0.6,0.9,0.9l0.6,0.6l0,0c5.4,4.9,12.6,8,20.5,8h276.7
	c16.9,0,30.6-13.7,30.6-30.6V80.8C388.8,74.1,386.6,67.9,382.9,62.8z"/>
<path id="XMLID_5_" class="st1" d="M318.5,350.4H43c-17.2,0-31.2-14-31.2-31.2V43.7c0-17.2,14-31.2,31.2-31.2h275.5
	c17.2,0,31.2,14,31.2,31.2v275.5C349.7,336.4,335.8,350.4,318.5,350.4z"/>
<g id="XMLID_2_">
	<path id="XMLID_3_" class="st2" d="M81.3,81.6h31.8l64.2,85.5V81.6h33.9v140.7h-32l-64.1-85.4v85.4H81.3V81.6z"/>
</g>
</svg>
